<svg xmlns="http://www.w3.org/2000/svg" width="24" height="24" viewBox="0 0 24 24">
    <path d="M22.56 12.25c0-.78-.07-1.53-.19-2.25h-11.3v4.51h6.47c-.29 1.48-1.14 2.73-2.4 3.58v2.99h3.86c2.26-2.09 3.56-5.17 3.56-8.83z" fill="#4285F4"/>
    <path d="M12.255 24c3.24 0 5.95-1.08 7.93-2.91l-3.86-3c-1.08.72-2.45 1.16-4.07 1.16-3.13 0-5.78-2.11-6.73-4.96h-3.98v3.09C2.515 21.75 7.085 24 12.255 24z" fill="#34A853"/>
    <path d="M5.525 14.29c-.25-.72-.38-1.49-.38-2.29s.14-1.57.38-2.29V6.62h-3.98a11.86 11.86 0 0 0 0 10.76l3.98-3.09z" fill="#FBBC05"/>
    <path d="M12.255 4.75c1.78 0 3.37.61 4.62 1.81l3.42-3.42C18.205 1.19 15.495 0 12.255 0 7.085 0 2.515 2.25 0.545 5.62l3.98 3.09c.95-2.85 3.6-4.96 6.73-4.96z" fill="#EA4335"/>
</svg>
